<svg width="48" height="48" viewBox="0 0 48 48" fill="none" xmlns="http://www.w3.org/2000/svg">
<path d="M16.8672 9.5C15.2124 9.4999 13.5947 10.0278 12.2187 11.0171C10.8427 12.0063 9.77021 13.4124 9.13691 15.0575C8.50361 16.7026 8.33792 18.5128 8.66079 20.2593C8.98367 22.0057 9.7806 23.6099 10.9508 24.8689L23.3143 38.1723C23.4106 38.2762 23.525 38.3586 23.6509 38.4148C23.7768 38.4711 23.9118 38.5 24.0482 38.5C24.1845 38.5 24.3195 38.4711 24.4454 38.4148C24.5714 38.3586 24.6858 38.2762 24.782 38.1723L37.1456 24.8667C38.6722 23.1693 39.5177 20.8943 39.4997 18.5322C39.4817 16.1701 38.6017 13.9103 37.0494 12.24C35.4972 10.5697 33.397 9.62282 31.2018 9.60347C29.0066 9.58412 26.8923 10.4939 25.3148 12.1366L24.0482 13.4973L22.7836 12.1366C22.0064 11.3004 21.0837 10.6371 20.0682 10.1847C19.0527 9.7323 17.9663 9.49964 16.8672 9.5Z" fill="black"/>
</svg>
