<svg width="48" height="48" viewBox="0 0 48 48" fill="none" xmlns="http://www.w3.org/2000/svg">
<path d="M16.8672 10L16.8674 10C17.8954 9.99966 18.9124 10.2172 19.8647 10.6414C20.817 11.0657 21.6848 11.6887 22.4174 12.477C22.4174 12.477 22.4174 12.477 22.4174 12.477L23.6819 13.8376L24.0479 14.2314L24.4142 13.8379L25.6781 12.4802C27.164 10.9343 29.1468 10.0854 31.1974 10.1035C33.2493 10.1215 35.2204 11.0064 36.6832 12.5804C38.1471 14.1556 38.9827 16.294 38.9997 18.536C39.0168 20.7767 38.2149 22.9286 36.7764 24.5294L24.4158 37.832L24.4154 37.8324C24.3637 37.8882 24.3043 37.9303 24.2416 37.9583C24.1791 37.9862 24.1134 38 24.0482 38C23.9829 38 23.9173 37.9862 23.8548 37.9583C23.7921 37.9303 23.7327 37.8882 23.681 37.8324L23.6806 37.832L11.3171 24.5286L11.317 24.5285C10.2137 23.3415 9.45867 21.8247 9.15246 20.1684C8.84624 18.512 9.00365 16.7954 9.60353 15.2371C10.2033 13.679 11.2169 12.3531 12.5105 11.423C13.8037 10.4934 15.3197 9.9999 16.8672 10Z" stroke="white"/>
</svg>
