<svg width="48" height="48" viewBox="0 0 48 48" fill="none" xmlns="http://www.w3.org/2000/svg">
<path d="M16.8672 10.5L16.8676 10.5C17.8244 10.4997 18.7721 10.7021 19.6612 11.0982C20.5503 11.4942 21.3631 12.0771 22.0511 12.8173C22.0511 12.8174 22.0511 12.8174 22.0512 12.8174L23.3157 14.178L24.0476 14.9656L24.7801 14.1786L26.0413 12.8238C27.4356 11.3748 29.2869 10.5866 31.193 10.6034C33.1016 10.6203 34.9436 11.4431 36.3169 12.9208C37.6925 14.4009 38.4836 16.4178 38.4997 18.5398C38.5159 20.6591 37.7575 22.6878 36.4073 24.1921L24.0495 37.4916L24.0487 37.4925C24.0485 37.4927 24.0483 37.4929 24.0482 37.493C24.048 37.4929 24.0479 37.4927 24.0477 37.4925L24.0468 37.4916L11.6833 24.1882L11.6833 24.1882C10.6468 23.073 9.93368 21.6437 9.64413 20.0775C9.35455 18.5111 9.50369 16.8882 10.0701 15.4167C10.6365 13.9456 11.5911 12.6999 12.8024 11.829C14.0127 10.9589 15.4271 10.4999 16.8672 10.5Z" stroke="white" stroke-width="2"/>
</svg>
