<svg width="36" height="36" viewBox="0 0 36 36" fill="none" xmlns="http://www.w3.org/2000/svg">
<path d="M18.485 31.5662C16.5533 31.6218 15.08 31.091 14.0649 29.974C13.0493 28.8315 12.5178 27.1784 12.4705 25.0146L12.4371 23.4873L16.2038 23.379L16.2439 25.2118C16.2818 26.9428 16.9889 27.7885 18.3652 27.7489C19.0412 27.7295 19.5438 27.5113 19.873 27.0943C20.2257 26.6511 20.3917 25.9586 20.3711 25.0168C20.3466 23.8967 20.0837 22.9236 19.5824 22.0975C19.0805 21.2459 18.1646 20.2406 16.8345 19.0817C15.1592 17.6016 13.9822 16.2599 13.3035 15.0568C12.6243 13.8282 12.2677 12.4375 12.2337 10.8848C12.1874 8.77195 12.6588 7.12822 13.6479 5.95357C14.6364 4.75346 16.0964 4.12564 18.0281 4.07011C19.9356 4.01527 21.3851 4.55945 22.3765 5.70264C23.3916 6.81967 23.9228 8.46005 23.9701 10.6238L23.9944 11.7311L20.2276 11.8394L20.1976 10.4648C20.1775 9.54838 19.994 8.89139 19.647 8.49382C19.2995 8.0708 18.7998 7.86866 18.1479 7.8874C16.8199 7.92558 16.1745 8.79742 16.2119 10.5029C16.233 11.4703 16.4943 12.367 16.9956 13.1931C17.521 14.0186 18.4488 15.0108 19.7788 16.1697C21.4783 17.6491 22.6556 19.0035 23.3107 20.2328C23.9657 21.462 24.3117 22.9167 24.3484 24.5968C24.3964 26.7859 23.914 28.4809 22.9014 29.6817C21.9129 30.8818 20.4408 31.51 18.485 31.5662Z" fill="#D42F26"/>
</svg>
