<svg width="186" height="43" viewBox="0 0 186 43" fill="none" xmlns="http://www.w3.org/2000/svg">
<path d="M13.5862 36.4785C11.6583 36.6102 10.1651 36.138 9.10679 35.0619C8.04688 33.9604 7.45057 32.3295 7.31784 30.1694L7.22415 28.6446L10.9837 28.3877L11.0961 30.2175C11.2023 31.9456 11.9422 32.7627 13.3158 32.6689C13.9906 32.6228 14.4842 32.3849 14.7966 31.9552C15.1316 31.4985 15.2702 30.8 15.2124 29.8596C15.1437 28.7414 14.8426 27.7795 14.3091 26.9738C13.774 26.1426 12.8191 25.1743 11.4443 24.0688C9.71186 22.6559 8.48282 21.3618 7.75718 20.1864C7.02999 18.9856 6.61876 17.6101 6.52351 16.0598C6.39391 13.9505 6.80006 12.2895 7.74197 11.0767C8.68231 9.83849 10.1165 9.15353 12.0444 9.0218C13.9483 8.89171 15.4181 9.37825 16.4539 10.4814C17.5122 11.5575 18.1078 13.1757 18.2405 15.3358L18.3084 16.4413L14.5489 16.6982L14.4646 15.3258C14.4084 14.411 14.1991 13.7617 13.8367 13.3782C13.4728 12.9692 12.9655 12.7869 12.3148 12.8314C10.9893 12.9219 10.3789 13.8186 10.4835 15.5213C10.5429 16.487 10.8393 17.3727 11.3728 18.1785C11.9304 18.9825 12.8966 19.9373 14.2714 21.0429C16.0279 22.4541 17.2577 23.7609 17.9608 24.9633C18.6639 26.1658 19.067 27.6057 19.17 29.283C19.3043 31.4686 18.8893 33.1813 17.9248 34.4211C16.9845 35.6593 15.5383 36.3451 13.5862 36.4785Z" fill="#D42F26"/>
<path d="M24.6727 12.4063L20.5132 12.6499L20.3124 8.83571L32.6099 8.1156L32.8107 11.9298L28.6513 12.1733L29.8563 35.0584L25.8777 35.2913L24.6727 12.4063Z" fill="#D42F26"/>
<path d="M35.7792 7.94028L41.6785 7.67446C43.7294 7.58205 45.2459 8.02352 46.2281 8.99887C47.2093 9.94877 47.7422 11.4669 47.8268 13.5533L47.8933 15.1944C48.0056 17.9678 47.2082 19.7626 45.5009 20.5787L45.5039 20.655C46.4814 20.9169 47.1823 21.5098 47.6065 22.4338C48.0548 23.3568 48.3109 24.607 48.3748 26.1845L48.565 30.8789C48.596 31.6422 48.6454 32.2645 48.7132 32.7457C48.78 33.2015 48.9192 33.6541 49.1308 34.1034L45.0773 34.286C44.915 33.86 44.802 33.4573 44.7383 33.0778C44.6746 32.6983 44.6226 32.0124 44.5824 31.0201L44.3844 26.1349C44.335 24.9136 44.1074 24.0699 43.7018 23.6039C43.3203 23.1368 42.6711 22.9239 41.7542 22.9652L40.3789 23.0271L40.8429 34.4768L36.8618 34.6562L35.7792 7.94028ZM41.672 19.1453C42.4682 19.1095 43.0505 18.8666 43.4191 18.4166C43.8117 17.9656 43.9874 17.2312 43.9462 16.2135L43.8627 14.1525C43.8235 13.1857 43.6262 12.4936 43.2709 12.0762C42.9397 11.6578 42.4243 11.4644 41.7246 11.4959L39.915 11.5775L40.2243 19.2106L41.672 19.1453Z" fill="#D42F26"/>
<path d="M51.9621 7.23325L62.8248 6.89494L62.9317 10.7133L56.052 10.9276L56.2498 17.9916L61.7174 17.8213L61.8244 21.6397L56.3568 21.81L56.5867 30.0195L63.4664 29.8052L63.5734 33.6236L52.7106 33.9619L51.9621 7.23325Z" fill="#D42F26"/>
<path d="M69.7178 6.73445L75.1146 6.64216L79.6549 33.3083L75.6706 33.3765L74.8646 28.0797L74.8658 28.1561L70.3383 28.2335L69.6943 33.4787L65.9999 33.5419L69.7178 6.73445ZM74.3391 24.5356L72.3611 11.3503L72.2887 11.3516L70.7533 24.5969L74.3391 24.5356Z" fill="#D42F26"/>
<path d="M83.5184 6.50863L89.2057 6.50566L91.7504 25.6428L91.8229 25.6427L94.3496 6.50297L100.037 6.5L100.05 33.2403L96.2821 33.2423L96.2726 12.996L96.2002 12.9961L93.3117 33.2438L89.979 33.2456L87.0715 13.0009L86.999 13.0009L87.0086 33.2471L83.531 33.2489L83.5184 6.50863Z" fill="#D42F26"/>
<path d="M103.111 6.52911L109.124 6.6227C111.176 6.65465 112.666 7.18724 113.594 8.22047C114.522 9.22823 114.971 10.7761 114.942 12.8642L114.927 13.9337C114.908 15.3088 114.675 16.4258 114.228 17.2848C113.805 18.1442 113.157 18.7581 112.282 19.1266L112.281 19.203C114.251 19.9468 115.215 21.8211 115.173 24.8258L115.141 27.1176C115.112 29.1802 114.571 30.7509 113.517 31.8297C112.488 32.8834 110.983 33.3949 109.003 33.364L102.737 33.2665L103.111 6.52911ZM108.501 17.5013C109.298 17.5137 109.892 17.3065 110.285 16.8796C110.701 16.4531 110.917 15.7306 110.931 14.712L110.952 13.2223C110.965 12.2547 110.806 11.5518 110.474 11.1137C110.166 10.6759 109.662 10.4515 108.962 10.4406L107.042 10.4108L106.943 17.4771L108.501 17.5013ZM109.057 29.5444C109.757 29.5553 110.279 29.3724 110.622 28.9957C110.966 28.5936 111.145 27.9087 111.158 26.941L111.191 24.611C111.208 23.3888 111.014 22.5452 110.61 22.0805C110.231 21.5907 109.582 21.3386 108.665 21.3243L106.89 21.2967L106.775 29.5089L109.057 29.5444Z" fill="#D42F26"/>
<path d="M120.423 6.82991L131.286 7.15366L131.184 10.9722L124.304 10.7671L124.114 17.8314L129.582 17.9944L129.48 21.8129L124.012 21.6499L123.792 29.8597L130.672 30.0648L130.57 33.8833L119.706 33.5595L120.423 6.82991Z" fill="#D42F26"/>
<path d="M134.136 7.24331L140.036 7.49855C142.087 7.58729 143.563 8.16092 144.465 9.21946C145.367 10.2526 145.778 11.8124 145.696 13.8989L145.633 15.5401C145.525 18.3137 144.588 20.0319 142.822 20.6946L142.819 20.771C143.772 21.1181 144.423 21.7707 144.773 22.7289C145.146 23.6881 145.303 24.9566 145.241 26.5342L145.059 31.2289C145.029 31.9923 145.029 32.6167 145.058 33.1023C145.089 33.5624 145.191 34.0256 145.367 34.492L141.313 34.3166C141.185 33.8778 141.104 33.4665 141.071 33.0827C141.037 32.6989 141.04 32.0109 141.079 31.0185L141.269 26.1329C141.316 24.9115 141.156 24.0508 140.789 23.5506C140.446 23.0515 139.816 22.7821 138.899 22.7424L137.524 22.6829L137.078 34.1334L133.097 33.9611L134.136 7.24331ZM139.12 18.9287C139.916 18.9631 140.516 18.7724 140.919 18.3566C141.346 17.9417 141.579 17.2254 141.619 16.2076L141.699 14.1465C141.736 13.1796 141.595 12.4725 141.274 12.0253C140.977 11.5792 140.479 11.341 139.779 11.3107L137.969 11.2324L137.672 18.8661L139.12 18.9287Z" fill="#D42F26"/>
<path d="M151.465 8.01863L157.361 8.36305C159.41 8.48279 160.878 9.07869 161.765 10.1507C162.654 11.1974 163.043 12.7632 162.934 14.8483L162.847 16.4884C162.702 19.2601 161.742 20.9639 159.967 21.5999L159.963 21.6762C160.911 22.0377 161.554 22.7001 161.89 23.6635C162.25 24.6282 162.389 25.8989 162.306 27.4754L162.06 32.1669C162.02 32.9297 162.011 33.5541 162.034 34.0401C162.058 34.5006 162.155 34.9653 162.324 35.4343L158.273 35.1977C158.151 34.7569 158.076 34.3445 158.048 33.9602C158.019 33.576 158.031 32.888 158.083 31.8963L158.34 27.0142C158.404 25.7936 158.256 24.9305 157.895 24.4248C157.559 23.9206 156.933 23.6417 156.016 23.5881L154.642 23.5079L154.041 34.9504L150.062 34.718L151.465 8.01863ZM156.289 19.7782C157.085 19.8247 157.687 19.643 158.096 19.2333C158.528 18.825 158.771 18.1122 158.825 17.0951L158.933 15.0355C158.984 14.0692 158.852 13.3601 158.537 12.9081C158.246 12.4575 157.751 12.2118 157.052 12.1709L155.243 12.0653L154.842 19.6937L156.289 19.7782Z" fill="#D42F26"/>
<path d="M169.725 24.5313L165.911 8.86399L170.14 9.16877L172.215 19.1588L172.288 19.164L175.633 9.56474L179.5 9.84347L173.7 24.8178L172.964 36.1751L168.989 35.8885L169.725 24.5313Z" fill="#D42F26"/>
</svg>
