<svg width="48" height="48" viewBox="0 0 48 48" fill="none" xmlns="http://www.w3.org/2000/svg">
<path d="M35.5 24C35.5009 24.3656 35.4098 24.7253 35.2358 25.0439C35.0618 25.3626 34.8106 25.6295 34.5068 25.8186L15.6782 37.683C15.3607 37.8832 14.9972 37.9925 14.625 37.9996C14.2528 38.0067 13.8856 37.9114 13.5611 37.7234C13.2398 37.5383 12.9721 37.2684 12.7856 36.9415C12.5991 36.6145 12.5005 36.2423 12.5 35.8631V12.1369C12.5005 11.7577 12.5991 11.3855 12.7856 11.0585C12.9721 10.7316 13.2398 10.4617 13.5611 10.2766C13.8856 10.0886 14.2528 9.99327 14.625 10.0004C14.9972 10.0075 15.3607 10.1168 15.6782 10.317L34.5068 22.1814C34.8106 22.3705 35.0618 22.6374 35.2358 22.9561C35.4098 23.2747 35.5009 23.6344 35.5 24Z" fill="#FAFAFA"/>
</svg>
