<svg width="48" height="48" viewBox="0 0 48 48" fill="none" xmlns="http://www.w3.org/2000/svg">
<path fill-rule="evenodd" clip-rule="evenodd" d="M22.0376 9.5C15.1133 9.5 9.5 15.1133 9.5 22.0376C9.5 28.9619 15.1133 34.5752 22.0376 34.5752C25.2251 34.5752 28.1348 33.3857 30.347 31.4263L37.1972 38.2765C37.4952 38.5745 37.9784 38.5745 38.2765 38.2765C38.5745 37.9784 38.5745 37.4952 38.2765 37.1972L31.4263 30.347C33.3857 28.1348 34.5752 25.2251 34.5752 22.0376C34.5752 15.1133 28.9619 9.5 22.0376 9.5ZM11.0263 22.0376C11.0263 15.9562 15.9562 11.0263 22.0376 11.0263C28.119 11.0263 33.0489 15.9562 33.0489 22.0376C33.0489 28.119 28.119 33.0489 22.0376 33.0489C15.9562 33.0489 11.0263 28.119 11.0263 22.0376Z" fill="#666666"/>
</svg>
